<svg width="824" height="824" viewBox="0 0 824 824" fill="none" xmlns="http://www.w3.org/2000/svg">
<g clip-path="url(#clip0_564_71)">
<rect width="824" height="824" rx="184" fill="white" style="fill:white;fill-opacity:1;"/>
<circle cx="267" cy="594" r="42" fill="black" style="fill:black;fill-opacity:1;"/>
<circle cx="267" cy="594" r="42" fill="url(#paint0_radial_564_71)" fill-opacity="0.5" style=""/>
<circle cx="267" cy="594" r="42" fill="url(#paint1_radial_564_71)" fill-opacity="0.3" style=""/>
<circle cx="557" cy="594" r="42" fill="black" style="fill:black;fill-opacity:1;"/>
<circle cx="557" cy="594" r="42" fill="url(#paint2_radial_564_71)" fill-opacity="0.5" style=""/>
<circle cx="557" cy="594" r="42" fill="url(#paint3_radial_564_71)" fill-opacity="0.3" style=""/>
<path d="M412 691C382.859 691 353.717 686.063 337.654 682.804C333.024 681.865 329.866 686.676 333.074 690.144C345.098 703.138 370.814 724 412 724C453.186 724 478.902 703.138 490.926 690.144C494.134 686.676 490.976 681.865 486.346 682.804C470.283 686.063 441.141 691 412 691Z" fill="url(#paint4_linear_564_71)" style=""/>
</g>
<defs>
<radialGradient id="paint0_radial_564_71" cx="0" cy="0" r="1" gradientUnits="userSpaceOnUse" gradientTransform="translate(241.807 578.038) rotate(112.103) scale(88.2816 69.6512)">
<stop stop-color="white" style="stop-color:white;stop-opacity:1;"/>
<stop offset="1" stop-opacity="0" style="stop-color:none;stop-opacity:0;"/>
</radialGradient>
<radialGradient id="paint1_radial_564_71" cx="0" cy="0" r="1" gradientUnits="userSpaceOnUse" gradientTransform="translate(288.309 621.165) rotate(126.504) scale(25.5816 15.4047)">
<stop stop-color="white" style="stop-color:white;stop-opacity:1;"/>
<stop offset="1" stop-opacity="0" style="stop-color:none;stop-opacity:0;"/>
</radialGradient>
<radialGradient id="paint2_radial_564_71" cx="0" cy="0" r="1" gradientUnits="userSpaceOnUse" gradientTransform="translate(531.807 578.038) rotate(112.103) scale(88.2816 69.6512)">
<stop stop-color="white" style="stop-color:white;stop-opacity:1;"/>
<stop offset="1" stop-opacity="0" style="stop-color:none;stop-opacity:0;"/>
</radialGradient>
<radialGradient id="paint3_radial_564_71" cx="0" cy="0" r="1" gradientUnits="userSpaceOnUse" gradientTransform="translate(578.309 621.165) rotate(126.504) scale(25.5816 15.4047)">
<stop stop-color="white" style="stop-color:white;stop-opacity:1;"/>
<stop offset="1" stop-opacity="0" style="stop-color:none;stop-opacity:0;"/>
</radialGradient>
<linearGradient id="paint4_linear_564_71" x1="293.565" y1="686.595" x2="316.497" y2="774.784" gradientUnits="userSpaceOnUse">
<stop stop-color="#FF9F5A" style="stop-color:#FF9F5A;stop-color:color(display-p3 1.0000 0.6235 0.3529);stop-opacity:1;"/>
<stop offset="1" stop-color="#FF9F5A" style="stop-color:#FF9F5A;stop-color:color(display-p3 1.0000 0.6235 0.3529);stop-opacity:1;"/>
</linearGradient>
<clipPath id="clip0_564_71">
<rect width="824" height="824" fill="white" style="fill:white;fill-opacity:1;"/>
</clipPath>
</defs>
</svg>
