<svg width="32" height="36" viewBox="0 0 32 36" fill="none" xmlns="http://www.w3.org/2000/svg">
<path d="M28.2711 21.2958C27.1084 21.2958 26.0749 21.8372 25.4037 22.6797L21.8702 20.6405C22.2577 19.8106 22.4755 18.8846 22.4755 17.908C22.4755 16.9314 22.2577 16.0053 21.8702 15.1755L25.3404 13.1742C26.0091 14.0648 27.0704 14.6442 28.2711 14.6442C30.2949 14.6442 31.9363 13.0047 31.9363 10.9831C31.9363 8.96158 30.2949 7.32208 28.2711 7.32208C26.2472 7.32208 24.6058 8.96158 24.6058 10.9831C24.6058 11.4006 24.6793 11.8003 24.8084 12.1748L21.3028 14.1963C20.2338 12.6732 18.5241 11.6333 16.5635 11.4638V7.274C18.3189 7.00076 19.6639 5.49029 19.6639 3.66104C19.6639 1.6395 18.0225 0 15.9987 0C13.9748 0 12.3334 1.6395 12.3334 3.66104C12.3334 5.49029 13.6784 7.00329 15.4338 7.274V11.4638C13.4733 11.6333 11.7635 12.6732 10.6946 14.1963L7.1889 12.1748C7.31808 11.8003 7.39154 11.4006 7.39154 10.9831C7.39154 8.96158 5.75015 7.32208 3.72629 7.32208C1.70242 7.32208 0.0610352 8.96158 0.0610352 10.9831C0.0610352 13.0047 1.70242 14.6442 3.72629 14.6442C4.92693 14.6442 5.98825 14.0648 6.65697 13.1742L10.1272 15.1755C9.73963 16.0053 9.52179 16.9314 9.52179 17.908C9.52179 18.8846 9.73963 19.8106 10.1272 20.643L6.59364 22.6822C5.9224 21.8397 4.88893 21.2983 3.72629 21.2983C1.70242 21.2983 0.0610352 22.9378 0.0610352 24.9593C0.0610352 26.9809 1.70242 28.6204 3.72629 28.6204C5.75015 28.6204 7.39154 26.9809 7.39154 24.9593C7.39154 24.5039 7.30542 24.0687 7.1509 23.6639L10.6946 21.6196C11.3329 22.5279 12.1992 23.2667 13.2098 23.7499V32.3497C13.2098 32.9721 13.5569 33.8551 13.9799 34.3131L15.2286 35.6565C15.6516 36.1145 16.3457 36.1145 16.7712 35.6565L18.02 34.3131C18.443 33.8551 18.79 32.9721 18.79 32.3497V23.7499C19.8007 23.2667 20.667 22.5304 21.3053 21.6196L24.849 23.6639C24.697 24.0662 24.6083 24.5014 24.6083 24.9593C24.6083 26.9809 26.2497 28.6204 28.2736 28.6204C30.2975 28.6204 31.9388 26.9809 31.9388 24.9593C31.9388 22.9378 30.2975 21.2983 28.2736 21.2983L28.2711 21.2958Z" fill="white"/>
</svg>
